<svg width="197" height="197" viewBox="0 0 197 197" fill="none" xmlns="http://www.w3.org/2000/svg">
<g opacity="0.6">
<path opacity="0.6" d="M50.302 47.2962C50.4025 47.5267 50.5494 47.7339 50.7337 47.905C50.918 48.0763 51.1355 48.2075 51.3728 48.2908C51.6101 48.3739 51.862 48.4073 52.1128 48.3887C52.3636 48.3701 52.6078 48.3 52.8302 48.1827C54.0889 47.6135 54.3624 46.6176 53.651 45.0635L50.3677 37.8511L52.2283 37.0083L55.5116 44.2098C56.7045 46.8255 55.8947 48.8393 53.6292 49.8681C53.1778 50.1183 52.6799 50.2732 52.1664 50.3234C51.6528 50.3737 51.1344 50.3181 50.6431 50.1602C50.1519 50.0022 49.6981 49.7453 49.3101 49.4051C48.922 49.065 48.6078 48.6489 48.3868 48.1827L50.302 47.2962Z" fill="#424928"/>
<path opacity="0.6" d="M63.8507 46.0814C60.6987 46.9788 57.7656 45.0745 56.7696 41.605C55.7737 38.1357 57.2731 34.9727 60.4141 34.0753C63.5552 33.1779 66.5102 35.0603 67.5061 38.5406C68.5021 42.021 66.9918 45.1839 63.8507 46.0814ZM60.9176 35.8374C58.8709 36.4174 58.0611 38.5735 58.7287 41.036C59.3962 43.4985 61.2677 44.8994 63.3144 44.3193C65.361 43.7392 66.1927 41.5722 65.5032 39.1097C64.8137 36.6472 62.9642 35.2464 60.9176 35.8374Z" fill="#424928"/>
<path opacity="0.6" d="M69.9363 39.3614L69.1154 32.1381L71.1511 31.9083L71.95 38.9128C72.2127 41.222 73.3072 42.1961 75.113 41.9772C76.9189 41.7583 77.7725 40.5873 77.5098 38.2779L76.7108 31.2735L78.7465 31.0437L79.5673 38.289C79.9395 41.5723 78.1993 43.4766 75.3209 43.7611C72.4425 44.0457 70.2755 42.6667 69.9363 39.3614Z" fill="#424928"/>
<path opacity="0.6" d="M84.3281 38.2233L84.142 43.1483L82.0955 43.0388L82.566 31L87.2284 31.1751C89.7347 31.2736 91.2997 32.5978 91.2012 34.9618C91.2114 35.3994 91.1341 35.8346 90.9736 36.2419C90.8132 36.6492 90.573 37.0202 90.267 37.3332C89.9611 37.6463 89.5958 37.895 89.1923 38.0648C88.7889 38.2345 88.3556 38.322 87.9179 38.3218L91.2012 43.4438L88.8811 43.3562L85.6962 38.3218L84.3281 38.2233ZM84.3938 36.505L86.9767 36.6035C88.3338 36.6582 89.1655 35.9578 89.1655 34.8415C89.1655 33.7252 88.4651 32.959 87.1081 32.9043L84.5032 32.8058L84.3938 36.505Z" fill="#424928"/>
<path opacity="0.6" d="M102.014 45.4467L100.471 45.1401L96.0934 35.2901L94.386 43.9253L92.4598 43.5423L94.8018 31.6785L96.6953 32.0616L100.789 41.4191L102.419 33.1888L104.345 33.5719L102.014 45.4467Z" fill="#424928"/>
<path opacity="0.6" d="M113.736 36.7458L113.802 49.715L111.864 48.9708V45.392L107.487 43.7612L105.199 46.4316L103.262 45.6984L111.864 36.0454L113.736 36.7458ZM108.778 42.3275L111.864 43.4986V38.7706L108.778 42.3275Z" fill="#424928"/>
<path opacity="0.6" d="M120.773 39.7993L122.557 40.8061L117.555 49.715L122.633 52.5496L121.713 54.1912L114.852 50.3606L120.773 39.7993Z" fill="#424928"/>
<path opacity="0.6" d="M136.129 61.3598C135.945 61.5318 135.799 61.7395 135.699 61.9701C135.599 62.2006 135.548 62.4492 135.548 62.7006C135.548 62.9518 135.599 63.2004 135.699 63.431C135.799 63.6615 135.945 63.8693 136.129 64.0412C137.069 65.0371 138.109 64.9934 139.346 63.8114L145.113 58.3391L146.514 59.8276L140.758 65.2998C138.667 67.2698 136.5 67.1604 134.793 65.2998C134.406 64.9532 134.093 64.5302 133.878 64.0575C133.661 63.5847 133.544 63.0722 133.535 62.5524C133.526 62.0325 133.624 61.5162 133.824 61.036C134.023 60.5559 134.319 60.1221 134.694 59.762L136.129 61.3598Z" fill="#424928"/>
<path opacity="0.6" d="M141.676 73.7927C139.805 71.1004 140.648 67.7075 143.613 65.65C146.58 63.5924 150.049 63.9645 151.92 66.6568C153.792 69.3492 153.015 72.742 149.995 74.8105C146.974 76.879 143.537 76.485 141.676 73.7927ZM150.432 67.6966C149.217 65.9564 146.908 65.8799 144.807 67.3463C142.706 68.8129 141.972 71.0019 143.186 72.742C144.401 74.4822 146.722 74.5807 148.823 73.1141C150.925 71.6475 151.636 69.4148 150.422 67.7075L150.432 67.6966Z" fill="#424928"/>
<path opacity="0.6" d="M149.995 77.3606L156.562 74.2415L157.436 76.1019L151.067 79.1226C148.965 80.1186 148.407 81.4757 149.185 83.1065C149.962 84.7371 151.374 85.175 153.463 84.2009L159.833 81.1693L160.72 83.0298L154.153 86.1489C151.165 87.5718 148.791 86.532 147.586 83.9601C146.383 81.3881 146.985 78.7943 149.995 77.3606Z" fill="#424928"/>
<path opacity="0.6" d="M155.73 90.6361L151.023 92.0262L150.444 90.0671L162.045 86.6306L163.368 91.1068C164.08 93.5037 163.368 95.408 161.06 96.0866C160.653 96.2344 160.22 96.3004 159.788 96.2807C159.356 96.261 158.932 96.1562 158.541 95.9721C158.149 95.7881 157.797 95.5283 157.507 95.208C157.216 94.8877 156.991 94.5131 156.846 94.1056L153.059 98.8883L152.402 96.6994L156.145 92.0808L155.73 90.6361ZM157.372 90.1547L158.105 92.6281C158.155 92.886 158.258 93.1304 158.408 93.3456C158.559 93.5608 158.753 93.7418 158.979 93.8769C159.204 94.0122 159.455 94.0984 159.716 94.1301C159.976 94.1618 160.241 94.1383 160.492 94.0611C160.743 93.9837 160.976 93.8545 161.173 93.6818C161.371 93.5089 161.53 93.2964 161.64 93.0581C161.75 92.8197 161.81 92.5607 161.814 92.298C161.816 92.0355 161.765 91.7749 161.661 91.5337L160.928 89.1149L157.372 90.1547Z" fill="#424928"/>
<path opacity="0.6" d="M154.548 109.745L154.339 108.191L162.274 100.902L153.518 101.996L153.3 100.059L165.338 98.4724L165.591 100.388L158.028 107.272L166.356 106.177L166.608 108.125L154.548 109.745Z" fill="#424928"/>
<path opacity="0.6" d="M166.586 117.986L154.329 122.244L154.395 120.153L157.787 119.059L157.93 114.44L154.647 113.094L154.712 111.026L166.586 116.016V117.986ZM159.703 115.097L159.593 118.38L164.124 116.881L159.703 115.097Z" fill="#424928"/>
<path opacity="0.6" d="M165.962 125.626L165.591 127.639L155.488 125.812L154.46 131.525L152.654 131.207L154.056 123.469L165.962 125.626Z" fill="#424928"/>
<path opacity="0.6" d="M150.508 147.121C150.289 147 150.046 146.926 149.796 146.904C149.546 146.881 149.293 146.91 149.056 146.989C148.818 147.068 148.599 147.195 148.411 147.364C148.224 147.53 148.073 147.735 147.97 147.964C147.323 149.179 147.707 150.152 149.217 150.94L156.211 154.65L155.259 156.468L148.255 152.746C145.715 151.399 145.135 149.31 146.295 147.121C146.499 146.643 146.799 146.212 147.178 145.855C147.555 145.499 148.002 145.223 148.491 145.047C148.98 144.87 149.498 144.796 150.017 144.829C150.536 144.862 151.043 145.001 151.505 145.238L150.508 147.121Z" fill="#424928"/>
<path opacity="0.6" d="M140.516 156.38C142.464 153.753 145.989 153.468 148.856 155.614C151.723 157.759 152.511 161.173 150.563 163.81C148.616 166.449 145.091 166.755 142.213 164.598C139.334 162.443 138.569 159.017 140.516 156.38ZM149.086 162.716C150.356 161.009 149.687 158.799 147.619 157.244C145.55 155.69 143.242 155.723 141.994 157.441C140.746 159.16 141.381 161.381 143.449 162.913C145.518 164.446 147.828 164.424 149.075 162.716H149.086Z" fill="#424928"/>
<path opacity="0.6" d="M139.806 165.409L144.873 170.619L143.406 172.041L138.493 166.985C136.872 165.321 135.406 165.234 134.114 166.492C132.823 167.75 132.856 169.217 134.475 170.87L139.39 175.938L137.923 177.36L132.845 172.129C130.535 169.765 130.754 167.182 132.845 165.168C134.935 163.154 137.485 163.022 139.806 165.409Z" fill="#424928"/>
<path opacity="0.6" d="M129.08 175.127L126.246 171.132L127.908 169.94L134.914 179.79L131.105 182.493C129.069 183.937 127.022 183.851 125.632 181.913C125.361 181.576 125.157 181.19 125.035 180.775C124.913 180.358 124.875 179.924 124.921 179.493C124.968 179.063 125.099 178.647 125.308 178.268C125.517 177.888 125.798 177.553 126.135 177.284L120.39 175.248L122.283 173.902L127.865 175.948L129.08 175.127ZM130.075 176.529L127.964 178.017C127.742 178.151 127.551 178.329 127.403 178.541C127.253 178.752 127.151 178.992 127.099 179.246C127.048 179.499 127.05 179.762 127.105 180.014C127.16 180.268 127.266 180.505 127.419 180.716C127.57 180.924 127.764 181.1 127.987 181.232C128.209 181.362 128.457 181.446 128.715 181.476C128.971 181.506 129.232 181.483 129.479 181.408C129.727 181.332 129.956 181.205 130.153 181.037L132.265 179.549L130.075 176.529Z" fill="#424928"/>
<path opacity="0.6" d="M110.639 180.217L112.051 179.517L121.518 184.649L117.588 176.759L119.361 175.883L124.746 186.718L123.016 187.582L114.053 182.657L117.785 190.176L116.023 191.052L110.639 180.217Z" fill="#424928"/>
<path opacity="0.6" d="M106.72 194.181L98.7308 183.992L100.723 183.391L102.912 186.225L107.344 184.879L107.552 181.322L109.533 180.719L108.581 193.645L106.72 194.181ZM107.235 186.74L104.072 187.702L106.95 191.501L107.235 186.74Z" fill="#424928"/>
<path opacity="0.6" d="M99.278 196.097L97.2532 196.393L95.7538 186.235L89.997 187.089L89.7344 185.273L97.505 184.124L99.278 196.097Z" fill="#424928"/>
<path opacity="0.6" d="M73.931 188.392C73.9812 188.141 73.9784 187.882 73.9231 187.633C73.8678 187.383 73.761 187.148 73.6096 186.942C73.4582 186.737 73.2655 186.564 73.0438 186.438C72.8222 186.31 72.5764 186.23 72.3222 186.203C70.9542 185.995 70.1334 186.662 69.9035 188.392L68.6559 196.206L66.6311 195.889L67.8788 188.064C68.3275 185.23 70.0677 183.992 72.5739 184.386C73.0982 184.422 73.6092 184.566 74.0742 184.812C74.5391 185.057 74.9476 185.396 75.2733 185.809C75.5992 186.221 75.8349 186.697 75.9657 187.206C76.0964 187.716 76.1191 188.246 76.0323 188.764L73.931 188.392Z" fill="#424928"/>
<path opacity="0.6" d="M61.9577 181.934C65.0769 182.919 66.4778 186.126 65.3833 189.596C64.2889 193.065 61.301 194.85 58.1819 193.865C55.0627 192.88 53.64 189.672 54.7344 186.203C55.8288 182.734 58.8385 180.949 61.9577 181.934ZM58.74 192.092C60.7648 192.736 62.6472 191.39 63.4133 188.95C64.1795 186.51 63.4133 184.321 61.3995 183.674C59.3858 183.03 57.4815 184.376 56.7044 186.826C55.9273 189.278 56.7153 191.456 58.74 192.092Z" fill="#424928"/>
<path opacity="0.6" d="M53.191 184.167L49.9077 190.635L48.0908 189.705L51.2976 183.434C52.392 181.366 51.9761 179.954 50.3563 179.122C48.7365 178.29 47.3795 178.815 46.3178 180.884L43.1112 187.155L41.2834 186.225L44.5667 179.734C46.0771 176.791 48.5833 176.178 51.1334 177.491C53.6835 178.805 54.7013 181.201 53.191 184.167Z" fill="#424928"/>
<path opacity="0.6" d="M40.5499 177.152L43.4283 173.18L45.0918 174.383L37.9998 184.233L34.213 181.497C32.1883 180.03 31.6192 178.06 32.9982 176.145C33.2289 175.777 33.5301 175.46 33.8844 175.21C34.2388 174.959 34.6391 174.782 35.0625 174.687C35.4858 174.593 35.9236 174.582 36.3509 174.658C36.778 174.733 37.1859 174.893 37.5511 175.127L37.6386 169.031L39.5211 170.399L39.3679 176.353L40.5499 177.152ZM39.5429 178.542L37.4416 177.032C37.2485 176.849 37.0188 176.71 36.7676 176.622C36.5163 176.535 36.2495 176.502 35.9847 176.527C35.7201 176.551 35.4634 176.631 35.2322 176.762C35.0009 176.894 34.8002 177.072 34.6435 177.288C34.4867 177.502 34.3776 177.747 34.3232 178.007C34.2688 178.269 34.2705 178.537 34.3282 178.797C34.3859 179.057 34.4981 179.301 34.6574 179.512C34.8169 179.725 35.0198 179.903 35.2528 180.03L37.3431 181.54L39.5429 178.542Z" fill="#424928"/>
<path opacity="0.6" d="M29.7813 161.348L30.8759 162.443L29.059 173.048L35.3084 166.821L36.7092 168.21L28.1725 176.802L26.8045 175.433L28.5884 165.365L22.6675 171.319L21.2666 169.929L29.7813 161.348Z" fill="#424928"/>
<path opacity="0.6" d="M15.2687 162.115L22.3607 151.268L23.5865 152.965L21.5947 155.93L24.3088 159.685L27.7563 158.733L28.9602 160.408L16.4288 163.691L15.2687 162.115ZM22.4812 160.188L20.544 157.506L17.8845 161.469L22.4812 160.188Z" fill="#424928"/>
<path opacity="0.6" d="M11.0881 155.668L10.1469 153.841L19.2636 149.134L16.6478 143.979L18.2676 143.137L21.8793 150.119L11.0881 155.668Z" fill="#424928"/>
<path opacity="0.6" d="M10.2011 129.215C10.4463 129.176 10.681 129.088 10.8907 128.955C11.1006 128.822 11.2812 128.648 11.4214 128.443C11.5617 128.238 11.6589 128.007 11.7068 127.764C11.7549 127.52 11.7527 127.269 11.7005 127.026C11.4707 125.669 10.6061 125.133 8.88776 125.429L1.08446 126.753L0.734192 124.739L8.54852 123.404C11.3831 122.922 13.1233 124.225 13.5392 126.687C13.6695 127.19 13.6943 127.715 13.6123 128.228C13.5304 128.742 13.3434 129.233 13.0628 129.67C12.7823 130.108 12.4145 130.483 11.9824 130.772C11.5501 131.061 11.063 131.258 10.5514 131.349L10.2011 129.215Z" fill="#424928"/>
<path opacity="0.6" d="M12.4888 115.787C12.5545 119.07 9.96063 121.412 6.35986 121.489C2.75923 121.565 0.0668959 119.3 0.00122924 116.016C-0.0644374 112.733 2.50746 110.369 6.13003 110.303C9.75273 110.238 12.4122 112.514 12.4888 115.787ZM1.82886 116.005C1.82886 118.129 3.75513 119.475 6.31613 119.42C8.87713 119.365 10.6939 117.954 10.6939 115.819C10.6939 113.685 8.77863 112.339 6.21763 112.394C3.65663 112.448 1.78513 113.882 1.82886 116.005Z" fill="#424928"/>
<path opacity="0.6" d="M7.53099 108.202L0.32959 107.108L0.625089 105.083L7.60769 106.079C9.90602 106.418 11.1209 105.597 11.3835 103.802C11.6462 102.008 10.7049 100.88 8.40659 100.519L1.42399 99.5232L1.70859 97.4875L8.93192 98.5819C12.2153 99.0525 13.6052 101.231 13.1894 104.054C12.7734 106.878 10.8254 108.673 7.53099 108.202Z" fill="#424928"/>
<path opacity="0.6" d="M10.0812 93.9634L14.7763 95.408L14.1743 97.3671L2.60608 93.8211L3.97418 89.3558C4.70741 86.959 6.39281 85.7879 8.64741 86.4774C9.06965 86.5774 9.46772 86.7603 9.81891 87.0152C10.1701 87.2701 10.4672 87.5921 10.6931 87.9625C10.919 88.333 11.0693 88.7446 11.1351 89.1734C11.2011 89.6023 11.1814 90.0399 11.0771 90.4611L16.8666 88.5678L16.1882 90.7566L10.508 92.5406L10.0812 93.9634ZM8.43951 93.4928L9.20558 91.0303C9.31669 90.7881 9.37474 90.5251 9.37605 90.2587C9.37723 89.9924 9.32168 89.7288 9.21293 89.4857C9.10406 89.2425 8.94462 89.0254 8.74525 88.8487C8.54576 88.6722 8.31094 88.5402 8.05641 88.4617C7.80189 88.383 7.53358 88.3598 7.26933 88.3933C7.00509 88.4268 6.75096 88.5162 6.52415 88.6558C6.2972 88.7953 6.1027 88.9816 5.95363 89.2024C5.80457 89.4232 5.70423 89.6732 5.65958 89.9358L4.90441 92.3983L8.43951 93.4928Z" fill="#424928"/>
<path opacity="0.6" d="M21.6169 78.6849L20.9274 80.0967L10.2894 81.7822L18.2022 85.6566L17.3376 87.4296L6.46979 82.1106L7.31255 80.3594L17.4252 78.8162L9.88445 75.1171L10.749 73.355L21.6169 78.6849Z" fill="#424928"/>
<path opacity="0.6" d="M16.1877 65.1904L28.6863 68.43L27.4714 70.1374L24.0239 69.1961L21.3316 72.9719L23.3891 75.9817L22.1853 77.6562L15.0385 66.854L16.1877 65.1904ZM20.3138 71.4068L22.2399 68.7145L17.6323 67.4668L20.3138 71.4068Z" fill="#424928"/>
<path opacity="0.6" d="M20.9376 59.1602L22.3495 57.6936L29.7807 64.8075L33.7755 60.6595L35.0997 61.9291L29.6276 67.5984L20.9376 59.1602Z" fill="#424928"/>
<path opacity="0.57" d="M13.2769 137.905C14.6888 141.013 12.6312 146.453 12.6312 146.453C12.6312 146.453 7.15889 144.439 5.76899 141.331C4.37909 138.223 5.42975 136.132 7.50915 135.18C9.58855 134.228 11.8651 134.797 13.2769 137.905Z" fill="#8E9373"/>
<path opacity="0.6" d="M8.0672 133.735C8.23465 136.103 8.85126 138.417 9.88393 140.554" stroke="#424928" stroke-width="0.416667"/>
<path opacity="0.6" d="M13.1891 137.949C13.7715 139.684 13.84 141.55 13.3861 143.323C13.2462 144.062 13.0634 144.793 12.8388 145.512C12.7512 145.796 12.6747 146.015 12.6309 146.168V146.311H12.4886C12.3354 146.311 12.1165 146.157 11.8538 146.037C11.1655 145.733 10.4933 145.393 9.84009 145.019C8.20183 144.195 6.83715 142.914 5.91099 141.331C5.28085 140.165 5.12404 138.801 5.47325 137.522C5.65541 137.03 5.93843 136.581 6.30407 136.204C6.66957 135.827 7.1098 135.53 7.59639 135.333C8.06577 135.095 8.57994 134.957 9.1058 134.928C9.63166 134.9 10.1576 134.982 10.6499 135.169C11.8198 135.738 12.7282 136.733 13.1891 137.949Z" stroke="#424928" stroke-width="0.416667"/>
<path opacity="0.6" d="M11.23 138.781C11.23 138.781 9.68681 137.456 8.7894 137.861C7.892 138.266 8.02333 139.897 8.02333 139.897" stroke="#424928" stroke-width="0.416667"/>
<path opacity="0.57" d="M42.378 53.8192C39.9703 56.2817 34.1588 56.2817 34.1588 56.2817C34.1588 56.2817 34.1588 50.4702 36.5337 48.0515C38.9087 45.6327 41.2836 45.8625 42.9034 47.5152C44.5232 49.1678 44.7968 51.4005 42.378 53.8192Z" fill="#8E9373"/>
<path opacity="0.6" d="M44.4574 47.5261C42.3183 48.5176 40.3869 49.9067 38.7664 51.6194" stroke="#424928" stroke-width="0.416667"/>
<path opacity="0.6" d="M42.3125 53.7533C40.8948 54.9168 39.1675 55.6398 37.3436 55.8328C36.6196 55.9615 35.8887 56.0493 35.1548 56.0955H34.4653H34.3121V55.9422C34.3121 55.7781 34.3121 55.5482 34.3121 55.2527C34.345 54.4974 34.4219 53.7446 34.5419 52.9981C34.7398 51.1776 35.458 49.4526 36.6104 48.0294C37.4809 47.028 38.7039 46.4007 40.0251 46.2783C40.5532 46.28 41.0751 46.3919 41.5575 46.6067C42.04 46.8215 42.4722 47.1346 42.8268 47.526C43.2103 47.8854 43.5138 48.3217 43.7175 48.8064C43.9211 49.291 44.0204 49.8132 44.0088 50.3386C43.9006 51.6518 43.2936 52.8738 42.3125 53.7533Z" stroke="#424928" stroke-width="0.416667"/>
<path opacity="0.6" d="M40.8456 52.2212C40.8456 52.2212 41.546 50.306 40.8456 49.6055C40.1451 48.9051 38.6567 49.6055 38.6567 49.6055" stroke="#424928" stroke-width="0.416667"/>
<path opacity="0.57" d="M129.234 55.8109C126.421 53.8737 125.38 48.1498 125.38 48.1498C125.38 48.1498 131.093 47.0553 133.907 49.0144C136.72 50.9734 136.872 53.2936 135.581 55.1761C134.29 57.0585 132.046 57.748 129.234 55.8109Z" fill="#8E9373"/>
<path opacity="0.6" d="M135.854 56.7084C134.495 54.7817 132.782 53.1293 130.81 51.8381" stroke="#424928" stroke-width="0.416667"/>
<path opacity="0.6" d="M129.289 55.7234C127.891 54.537 126.868 52.9706 126.344 51.2142C126.086 50.4972 125.866 49.7664 125.688 49.0254C125.622 48.7517 125.567 48.5219 125.534 48.3577V48.2046H125.688L126.367 48.1061C127.118 48.0171 127.874 47.966 128.632 47.9528C130.452 47.7996 132.277 48.1798 133.885 49.0472C135.029 49.7203 135.869 50.8108 136.227 52.0898C136.379 53.1353 136.131 54.1998 135.534 55.0703C134.935 55.9409 134.029 56.5533 132.999 56.785C131.671 56.9225 130.342 56.5422 129.289 55.7234Z" stroke="#424928" stroke-width="0.416667"/>
<path opacity="0.6" d="M130.535 54.0161C130.535 54.0161 132.55 54.3444 133.108 53.5346C133.666 52.7247 132.714 51.3457 132.714 51.3457" stroke="#424928" stroke-width="0.416667"/>
<path opacity="0.57" d="M153.453 139.459C154.088 136.1 158.925 132.893 158.925 132.893C158.925 132.893 162.209 137.676 161.585 141.035C160.961 144.395 158.86 145.479 156.627 145.052C154.394 144.625 152.862 142.798 153.453 139.459Z" fill="#8E9373"/>
<path opacity="0.6" d="M155.347 145.862C156.562 143.846 157.381 141.617 157.766 139.295" stroke="#424928" stroke-width="0.416667"/>
<path opacity="0.6" d="M153.596 139.459C154.119 137.705 155.138 136.14 156.529 134.95C157.075 134.428 157.649 133.935 158.246 133.473L158.805 133.057L158.925 132.969L159.013 133.101L159.375 133.681C159.774 134.328 160.14 134.997 160.469 135.683C161.338 137.298 161.718 139.131 161.563 140.959C161.405 142.276 160.747 143.483 159.724 144.33C158.827 144.888 157.75 145.086 156.712 144.883C155.675 144.68 154.753 144.091 154.132 143.235C153.475 142.092 153.283 140.74 153.596 139.459Z" stroke="#424928" stroke-width="0.416667"/>
<path opacity="0.6" d="M155.642 139.908C155.642 139.908 156.135 141.889 157.109 142.097C158.082 142.305 158.903 140.882 158.903 140.882" stroke="#424928" stroke-width="0.416667"/>
<path opacity="0.57" d="M82.4128 188.425C85.8165 188.14 90.249 191.895 90.249 191.895C90.249 191.895 86.528 196.36 83.1242 196.656C79.7205 196.951 78.1116 195.277 77.9365 192.956C77.7615 190.635 79.0309 188.71 82.4128 188.425Z" fill="#8E9373"/>
<path opacity="0.6" d="M76.7325 191.993C79.0072 192.621 81.3805 192.81 83.726 192.551" stroke="#424928" stroke-width="0.416667"/>
<path opacity="0.6" d="M82.424 188.523C84.2539 188.556 86.0357 189.114 87.5569 190.132C88.2104 190.517 88.8425 190.937 89.4504 191.39L89.9866 191.807L90.107 191.905L89.9757 191.993L89.516 192.496C88.9946 193.045 88.4429 193.564 87.8635 194.05C86.5459 195.325 84.8828 196.185 83.0807 196.524C81.7717 196.728 80.4345 196.418 79.3486 195.659C78.5607 194.952 78.0714 193.971 77.98 192.916C77.8884 191.862 78.2017 190.811 78.8561 189.978C79.8138 189.052 81.0918 188.531 82.424 188.523Z" stroke="#424928" stroke-width="0.416667"/>
<path opacity="0.6" d="M82.5445 190.647C82.5445 190.647 80.7824 191.665 80.87 192.638C80.9575 193.613 82.5334 194.039 82.5334 194.039" stroke="#424928" stroke-width="0.416667"/>
</g>
</svg>
